<svg id="28dc3544-aea9-4d27-9861-61b1e5ed32cd" class="ico-error-400" xmlns="http://www.w3.org/2000/svg" width="310" height="310" viewBox="0 0 310 310"><title>400 - Bad Request</title><g opacity="0.05"><circle cx="155" cy="155" r="155"/></g><path d="M155,56.7931a97.7778,97.7778,0,1,0,97.7773,97.7778A97.7776,97.7776,0,0,0,155,56.7931Zm0,173.3333a75.5556,75.5556,0,1,1,75.5552-75.5555A75.6411,75.6411,0,0,1,155,230.1264Z"/><path d="M184.5662,125.0047a8.8888,8.8888,0,0,0-12.5708,0L155,142l-16.9946-16.9948a8.8892,8.8892,0,1,0-12.5713,12.5712l16.9946,16.9948-16.9946,16.9948a8.8892,8.8892,0,0,0,12.5713,12.5712L155,167.1419l16.9951,16.9948a8.889,8.889,0,0,0,12.5708-12.5712l-16.9946-16.9948,16.9946-16.9948A8.8887,8.8887,0,0,0,184.5662,125.0047Z"/></svg>
