<svg id="69487eac-993f-4b88-bd0b-8136c6caacd8" class="ico-error-404" xmlns="http://www.w3.org/2000/svg" width="310" height="310" viewBox="0 0 310 310"><title>404 - Error</title><g opacity="0.05"><circle cx="155" cy="155" r="155"/></g><path d="M194.6921,139.6152h-78.78a4.3589,4.3589,0,1,1,0-8.7179h78.78a4.3589,4.3589,0,1,1,0,8.7179Z"/><path d="M194.6921,160.1783H176.016a4.3589,4.3589,0,1,1,0-8.7179h18.676a4.3589,4.3589,0,1,1,0,8.7179Z"/><path d="M160.7585,160.1783h-44.846a4.3589,4.3589,0,1,1,0-8.7179h44.846a4.3589,4.3589,0,1,1,0,8.7179Z"/><path d="M194.6921,180.7413h-78.78a4.3589,4.3589,0,1,1,0-8.7179h78.78a4.3589,4.3589,0,1,1,0,8.7179Z"/><path d="M275.394,251.6395l-40.343-40.3422a97.9526,97.9526,0,1,0-23.3241,23.324l40.342,40.3412a16.4926,16.4926,0,1,0,23.3251-23.323ZM155.0407,230.1114a75.5,75.5,0,1,1,75.5-75.5A75.5,75.5,0,0,1,155.0407,230.1114Z"/></svg>
