<svg id="3b3ca687-7535-4d22-b8af-20d79fbd8290" class="ico-error-500" xmlns="http://www.w3.org/2000/svg" width="310" height="310" viewBox="0 0 310 310"><title>500 - Internal Server Error</title><g opacity="0.05"><circle cx="155" cy="155" r="155"/></g><path d="M95,106.7994H215a10.0294,10.0294,0,0,0,10-10v-20a10.0294,10.0294,0,0,0-10-10H95a10.0294,10.0294,0,0,0-10,10v20A10.0294,10.0294,0,0,0,95,106.7994Zm39.9969-25h69.9937a5,5,0,0,1,0,10H134.9969a5,5,0,0,1,0-10Zm-29.9874,0a5,5,0,1,1-5,5A5,5,0,0,1,105.0095,81.7994Z"/><path d="M95,156.8057a10.0294,10.0294,0,0,0-10,10v20a10.0294,10.0294,0,0,0,10,10h37.7914a64.6986,64.6986,0,0,1,14.1979-40Zm10.0095,25a5,5,0,1,1,5-5A5,5,0,0,1,105.0095,181.8057Z"/><path d="M95,151.8025h56.4191A64.97,64.97,0,0,1,225,138.3251V121.8025a10.0294,10.0294,0,0,0-10-10H95a10.0294,10.0294,0,0,0-10,10v20A10.0294,10.0294,0,0,0,95,151.8025Zm39.9969-25h37.28a74.79,74.79,0,0,0-18.746,10H134.9969a5,5,0,0,1,0-10Zm-29.9874,0a5,5,0,1,1-5,5A5,5,0,0,1,105.0095,126.8025Z"/><path d="M197.7778,142.3486a55,55,0,1,0,55,55A55,55,0,0,0,197.7778,142.3486Zm0,97.5a42.5,42.5,0,1,1,42.5-42.5A42.5481,42.5481,0,0,1,197.7778,239.8486Z"/><path d="M214.4086,180.7177a5,5,0,0,0-7.071,0l-9.56,9.56-9.56-9.56a5,5,0,1,0-7.0714,7.0712l9.56,9.56-9.56,9.56a5,5,0,0,0,7.0714,7.0713l9.56-9.56,9.56,9.56a5,5,0,0,0,7.071-7.0713l-9.5594-9.56,9.5594-9.56A5,5,0,0,0,214.4086,180.7177Z"/></svg>
